<svg width="1083" height="298" viewBox="0 0 1083 298" fill="none" xmlns="http://www.w3.org/2000/svg">
<path d="M63.4219 99.6172H77.625V110.234H63.4219V134H50.3438V110.234H3.72656V102.57L49.5703 31.625H63.4219V99.6172ZM18.4922 99.6172H50.3438V49.4141L48.7969 52.2266L18.4922 99.6172ZM153.562 90.3359C153.562 105.57 150.961 116.891 145.758 124.297C140.555 131.703 132.422 135.406 121.359 135.406C110.438 135.406 102.352 131.797 97.1016 124.578C91.8516 117.312 89.1328 106.484 88.9453 92.0938V74.7266C88.9453 59.6797 91.5469 48.5 96.75 41.1875C101.953 33.875 110.109 30.2188 121.219 30.2188C132.234 30.2188 140.344 33.7578 145.547 40.8359C150.75 47.8672 153.422 58.7422 153.562 73.4609V90.3359ZM140.555 72.5469C140.555 61.5312 139.008 53.5156 135.914 48.5C132.82 43.4375 127.922 40.9062 121.219 40.9062C114.562 40.9062 109.711 43.4141 106.664 48.4297C103.617 53.4453 102.047 61.1562 101.953 71.5625V92.375C101.953 103.438 103.547 111.617 106.734 116.914C109.969 122.164 114.844 124.789 121.359 124.789C127.781 124.789 132.539 122.305 135.633 117.336C138.773 112.367 140.414 104.539 140.555 93.8516V72.5469ZM225.141 99.6172H239.344V110.234H225.141V134H212.062V110.234H165.445V102.57L211.289 31.625H225.141V99.6172ZM180.211 99.6172H212.062V49.4141L210.516 52.2266L180.211 99.6172Z" fill="black"/>
<path d="M306.023 53.1836C300.234 51.5195 296.016 49.4805 293.367 47.0664C290.742 44.6289 289.43 41.6289 289.43 38.0664C289.43 34.0352 291.035 30.707 294.246 28.082C297.48 25.4336 301.676 24.1094 306.832 24.1094C310.348 24.1094 313.477 24.7891 316.219 26.1484C318.984 27.5078 321.117 29.3828 322.617 31.7734C324.141 34.1641 324.902 36.7773 324.902 39.6133H318.117C318.117 36.5195 317.133 34.0938 315.164 32.3359C313.195 30.5547 310.418 29.6641 306.832 29.6641C303.504 29.6641 300.902 30.4023 299.027 31.8789C297.176 33.332 296.25 35.3594 296.25 37.9609C296.25 40.0469 297.129 41.8164 298.887 43.2695C300.668 44.6992 303.68 46.0117 307.922 47.207C312.188 48.4023 315.516 49.7266 317.906 51.1797C320.32 52.6094 322.102 54.2852 323.25 56.207C324.422 58.1289 325.008 60.3906 325.008 62.9922C325.008 67.1406 323.391 70.4688 320.156 72.9766C316.922 75.4609 312.598 76.7031 307.184 76.7031C303.668 76.7031 300.387 76.0352 297.34 74.6992C294.293 73.3398 291.938 71.4883 290.273 69.1445C288.633 66.8008 287.812 64.1406 287.812 61.1641H294.598C294.598 64.2578 295.734 66.707 298.008 68.5117C300.305 70.293 303.363 71.1836 307.184 71.1836C310.746 71.1836 313.477 70.457 315.375 69.0039C317.273 67.5508 318.223 65.5703 318.223 63.0625C318.223 60.5547 317.344 58.6211 315.586 57.2617C313.828 55.8789 310.641 54.5195 306.023 53.1836ZM330.949 56.6289C330.949 52.9023 331.676 49.5508 333.129 46.5742C334.605 43.5977 336.645 41.3008 339.246 39.6836C341.871 38.0664 344.859 37.2578 348.211 37.2578C353.391 37.2578 357.574 39.0508 360.762 42.6367C363.973 46.2227 365.578 50.9922 365.578 56.9453V57.4023C365.578 61.1055 364.863 64.4336 363.434 67.3867C362.027 70.3164 360 72.6016 357.352 74.2422C354.727 75.8828 351.703 76.7031 348.281 76.7031C343.125 76.7031 338.941 74.9102 335.73 71.3242C332.543 67.7383 330.949 62.9922 330.949 57.0859V56.6289ZM337.488 57.4023C337.488 61.6211 338.461 65.0078 340.406 67.5625C342.375 70.1172 345 71.3945 348.281 71.3945C351.586 71.3945 354.211 70.1055 356.156 67.5273C358.102 64.9258 359.074 61.293 359.074 56.6289C359.074 52.457 358.078 49.082 356.086 46.5039C354.117 43.9023 351.492 42.6016 348.211 42.6016C345 42.6016 342.41 43.8789 340.441 46.4336C338.473 48.9883 337.488 52.6445 337.488 57.4023ZM392.121 43.7969C391.137 43.6328 390.07 43.5508 388.922 43.5508C384.656 43.5508 381.762 45.3672 380.238 49V76H373.734V37.9609H380.062L380.168 42.3555C382.301 38.957 385.324 37.2578 389.238 37.2578C390.504 37.2578 391.465 37.4219 392.121 37.75V43.7969ZM416.52 43.7969C415.535 43.6328 414.469 43.5508 413.32 43.5508C409.055 43.5508 406.16 45.3672 404.637 49V76H398.133V37.9609H404.461L404.566 42.3555C406.699 38.957 409.723 37.2578 413.637 37.2578C414.902 37.2578 415.863 37.4219 416.52 37.75V43.7969ZM435.609 66.4727L444.469 37.9609H451.43L436.137 81.8711C433.77 88.1992 430.008 91.3633 424.852 91.3633L423.621 91.2578L421.195 90.8008V85.5273L422.953 85.668C425.156 85.668 426.867 85.2227 428.086 84.332C429.328 83.4414 430.348 81.8125 431.145 79.4453L432.586 75.5781L419.016 37.9609H426.117L435.609 66.4727ZM464.543 61.5508H458.672L458.215 24.8125H465.035L464.543 61.5508ZM457.969 72.7305C457.969 71.6758 458.285 70.7969 458.918 70.0938C459.574 69.3672 460.535 69.0039 461.801 69.0039C463.066 69.0039 464.027 69.3672 464.684 70.0938C465.34 70.7969 465.668 71.6758 465.668 72.7305C465.668 73.7852 465.34 74.6641 464.684 75.3672C464.027 76.0469 463.066 76.3867 461.801 76.3867C460.535 76.3867 459.574 76.0469 458.918 75.3672C458.285 74.6641 457.969 73.7852 457.969 72.7305ZM301.98 143.863L302.965 150.613L304.406 144.531L314.531 108.812H320.227L330.105 144.531L331.512 150.719L332.602 143.828L340.547 108.812H347.332L334.922 160H328.77L318.223 122.699L317.414 118.797L316.605 122.699L305.672 160H299.52L287.145 108.812H293.895L301.98 143.863ZM368.496 160.703C363.34 160.703 359.145 159.016 355.91 155.641C352.676 152.242 351.059 147.707 351.059 142.035V140.84C351.059 137.066 351.773 133.703 353.203 130.75C354.656 127.773 356.672 125.453 359.25 123.789C361.852 122.102 364.664 121.258 367.688 121.258C372.633 121.258 376.477 122.887 379.219 126.145C381.961 129.402 383.332 134.066 383.332 140.137V142.844H357.562C357.656 146.594 358.746 149.629 360.832 151.949C362.941 154.246 365.613 155.395 368.848 155.395C371.145 155.395 373.09 154.926 374.684 153.988C376.277 153.051 377.672 151.809 378.867 150.262L382.84 153.355C379.652 158.254 374.871 160.703 368.496 160.703ZM367.688 126.602C365.062 126.602 362.859 127.562 361.078 129.484C359.297 131.383 358.195 134.055 357.773 137.5H376.828V137.008C376.641 133.703 375.75 131.148 374.156 129.344C372.562 127.516 370.406 126.602 367.688 126.602ZM424.008 155.395C426.328 155.395 428.355 154.691 430.09 153.285C431.824 151.879 432.785 150.121 432.973 148.012H439.125C439.008 150.191 438.258 152.266 436.875 154.234C435.492 156.203 433.641 157.773 431.32 158.945C429.023 160.117 426.586 160.703 424.008 160.703C418.828 160.703 414.703 158.98 411.633 155.535C408.586 152.066 407.062 147.332 407.062 141.332V140.242C407.062 136.539 407.742 133.246 409.102 130.363C410.461 127.48 412.406 125.242 414.938 123.648C417.492 122.055 420.504 121.258 423.973 121.258C428.238 121.258 431.777 122.535 434.59 125.09C437.426 127.645 438.938 130.961 439.125 135.039H432.973C432.785 132.578 431.848 130.562 430.16 128.992C428.496 127.398 426.434 126.602 423.973 126.602C420.668 126.602 418.102 127.797 416.273 130.188C414.469 132.555 413.566 135.988 413.566 140.488V141.719C413.566 146.102 414.469 149.477 416.273 151.844C418.078 154.211 420.656 155.395 424.008 155.395ZM469.922 160C469.547 159.25 469.242 157.914 469.008 155.992C465.984 159.133 462.375 160.703 458.18 160.703C454.43 160.703 451.348 159.648 448.934 157.539C446.543 155.406 445.348 152.711 445.348 149.453C445.348 145.492 446.848 142.422 449.848 140.242C452.871 138.039 457.113 136.938 462.574 136.938H468.902V133.949C468.902 131.676 468.223 129.871 466.863 128.535C465.504 127.176 463.5 126.496 460.852 126.496C458.531 126.496 456.586 127.082 455.016 128.254C453.445 129.426 452.66 130.844 452.66 132.508H446.121C446.121 130.609 446.789 128.781 448.125 127.023C449.484 125.242 451.312 123.836 453.609 122.805C455.93 121.773 458.473 121.258 461.238 121.258C465.621 121.258 469.055 122.359 471.539 124.562C474.023 126.742 475.312 129.754 475.406 133.598V151.105C475.406 154.598 475.852 157.375 476.742 159.438V160H469.922ZM459.129 155.043C461.168 155.043 463.102 154.516 464.93 153.461C466.758 152.406 468.082 151.035 468.902 149.348V141.543H463.805C455.836 141.543 451.852 143.875 451.852 148.539C451.852 150.578 452.531 152.172 453.891 153.32C455.25 154.469 456.996 155.043 459.129 155.043ZM491.754 121.961L491.965 126.742C494.871 123.086 498.668 121.258 503.355 121.258C511.395 121.258 515.449 125.793 515.52 134.863V160H509.016V134.828C508.992 132.086 508.359 130.059 507.117 128.746C505.898 127.434 503.988 126.777 501.387 126.777C499.277 126.777 497.426 127.34 495.832 128.465C494.238 129.59 492.996 131.066 492.105 132.895V160H485.602V121.961H491.754ZM522.973 123.227L519.281 120.695C521.461 117.648 522.586 114.438 522.656 111.062V106H529.09V110.57C529.066 112.914 528.48 115.258 527.332 117.602C526.207 119.922 524.754 121.797 522.973 123.227ZM545.754 112.75V121.961H552.855V126.988H545.754V150.578C545.754 152.102 546.07 153.25 546.703 154.023C547.336 154.773 548.414 155.148 549.938 155.148C550.688 155.148 551.719 155.008 553.031 154.727V160C551.32 160.469 549.656 160.703 548.039 160.703C545.133 160.703 542.941 159.824 541.465 158.066C539.988 156.309 539.25 153.812 539.25 150.578V126.988H532.324V121.961H539.25V112.75H545.754ZM600.492 149.91C600.492 148.152 599.824 146.793 598.488 145.832C597.176 144.848 594.867 144.004 591.562 143.301C588.281 142.598 585.668 141.754 583.723 140.77C581.801 139.785 580.371 138.613 579.434 137.254C578.52 135.895 578.062 134.277 578.062 132.402C578.062 129.285 579.375 126.648 582 124.492C584.648 122.336 588.023 121.258 592.125 121.258C596.438 121.258 599.93 122.371 602.602 124.598C605.297 126.824 606.645 129.672 606.645 133.141H600.105C600.105 131.359 599.344 129.824 597.82 128.535C596.32 127.246 594.422 126.602 592.125 126.602C589.758 126.602 587.906 127.117 586.57 128.148C585.234 129.18 584.566 130.527 584.566 132.191C584.566 133.762 585.188 134.945 586.43 135.742C587.672 136.539 589.91 137.301 593.145 138.027C596.402 138.754 599.039 139.621 601.055 140.629C603.07 141.637 604.559 142.855 605.52 144.285C606.504 145.691 606.996 147.414 606.996 149.453C606.996 152.852 605.637 155.582 602.918 157.645C600.199 159.684 596.672 160.703 592.336 160.703C589.289 160.703 586.594 160.164 584.25 159.086C581.906 158.008 580.066 156.508 578.73 154.586C577.418 152.641 576.762 150.543 576.762 148.293H583.266C583.383 150.473 584.25 152.207 585.867 153.496C587.508 154.762 589.664 155.395 592.336 155.395C594.797 155.395 596.766 154.902 598.242 153.918C599.742 152.91 600.492 151.574 600.492 149.91ZM631.254 160.703C626.098 160.703 621.902 159.016 618.668 155.641C615.434 152.242 613.816 147.707 613.816 142.035V140.84C613.816 137.066 614.531 133.703 615.961 130.75C617.414 127.773 619.43 125.453 622.008 123.789C624.609 122.102 627.422 121.258 630.445 121.258C635.391 121.258 639.234 122.887 641.977 126.145C644.719 129.402 646.09 134.066 646.09 140.137V142.844H620.32C620.414 146.594 621.504 149.629 623.59 151.949C625.699 154.246 628.371 155.395 631.605 155.395C633.902 155.395 635.848 154.926 637.441 153.988C639.035 153.051 640.43 151.809 641.625 150.262L645.598 153.355C642.41 158.254 637.629 160.703 631.254 160.703ZM630.445 126.602C627.82 126.602 625.617 127.562 623.836 129.484C622.055 131.383 620.953 134.055 620.531 137.5H639.586V137.008C639.398 133.703 638.508 131.148 636.914 129.344C635.32 127.516 633.164 126.602 630.445 126.602ZM669.434 160.703C664.277 160.703 660.082 159.016 656.848 155.641C653.613 152.242 651.996 147.707 651.996 142.035V140.84C651.996 137.066 652.711 133.703 654.141 130.75C655.594 127.773 657.609 125.453 660.188 123.789C662.789 122.102 665.602 121.258 668.625 121.258C673.57 121.258 677.414 122.887 680.156 126.145C682.898 129.402 684.27 134.066 684.27 140.137V142.844H658.5C658.594 146.594 659.684 149.629 661.77 151.949C663.879 154.246 666.551 155.395 669.785 155.395C672.082 155.395 674.027 154.926 675.621 153.988C677.215 153.051 678.609 151.809 679.805 150.262L683.777 153.355C680.59 158.254 675.809 160.703 669.434 160.703ZM668.625 126.602C666 126.602 663.797 127.562 662.016 129.484C660.234 131.383 659.133 134.055 658.711 137.5H677.766V137.008C677.578 133.703 676.688 131.148 675.094 129.344C673.5 127.516 671.344 126.602 668.625 126.602ZM697.945 121.961L698.121 126.18C700.91 122.898 704.672 121.258 709.406 121.258C714.727 121.258 718.348 123.297 720.27 127.375C721.535 125.547 723.176 124.07 725.191 122.945C727.23 121.82 729.633 121.258 732.398 121.258C740.742 121.258 744.984 125.676 745.125 134.512V160H738.621V134.898C738.621 132.18 738 130.152 736.758 128.816C735.516 127.457 733.43 126.777 730.5 126.777C728.086 126.777 726.082 127.504 724.488 128.957C722.895 130.387 721.969 132.32 721.711 134.758V160H715.172V135.074C715.172 129.543 712.465 126.777 707.051 126.777C702.785 126.777 699.867 128.594 698.297 132.227V160H691.793V121.961H697.945ZM781.652 112.75V121.961H788.754V126.988H781.652V150.578C781.652 152.102 781.969 153.25 782.602 154.023C783.234 154.773 784.312 155.148 785.836 155.148C786.586 155.148 787.617 155.008 788.93 154.727V160C787.219 160.469 785.555 160.703 783.938 160.703C781.031 160.703 778.84 159.824 777.363 158.066C775.887 156.309 775.148 153.812 775.148 150.578V126.988H768.223V121.961H775.148V112.75H781.652ZM793.957 140.629C793.957 136.902 794.684 133.551 796.137 130.574C797.613 127.598 799.652 125.301 802.254 123.684C804.879 122.066 807.867 121.258 811.219 121.258C816.398 121.258 820.582 123.051 823.77 126.637C826.98 130.223 828.586 134.992 828.586 140.945V141.402C828.586 145.105 827.871 148.434 826.441 151.387C825.035 154.316 823.008 156.602 820.359 158.242C817.734 159.883 814.711 160.703 811.289 160.703C806.133 160.703 801.949 158.91 798.738 155.324C795.551 151.738 793.957 146.992 793.957 141.086V140.629ZM800.496 141.402C800.496 145.621 801.469 149.008 803.414 151.562C805.383 154.117 808.008 155.395 811.289 155.395C814.594 155.395 817.219 154.105 819.164 151.527C821.109 148.926 822.082 145.293 822.082 140.629C822.082 136.457 821.086 133.082 819.094 130.504C817.125 127.902 814.5 126.602 811.219 126.602C808.008 126.602 805.418 127.879 803.449 130.434C801.48 132.988 800.496 136.645 800.496 141.402ZM856.781 160V126.988H850.77V121.961H856.781V118.727C856.781 114.484 857.988 111.18 860.402 108.812C862.84 106.445 866.273 105.262 870.703 105.262C873.328 105.262 876.645 105.977 880.652 107.406L879.562 112.891C876.633 111.719 873.844 111.133 871.195 111.133C868.406 111.133 866.391 111.766 865.148 113.031C863.93 114.273 863.32 116.148 863.32 118.656V121.961H871.09V126.988H863.32V160H856.781ZM883.887 160H877.348V121.961H883.887V160ZM900.621 121.961L900.832 126.742C903.738 123.086 907.535 121.258 912.223 121.258C920.262 121.258 924.316 125.793 924.387 134.863V160H917.883V134.828C917.859 132.086 917.227 130.059 915.984 128.746C914.766 127.434 912.855 126.777 910.254 126.777C908.145 126.777 906.293 127.34 904.699 128.465C903.105 129.59 901.863 131.066 900.973 132.895V160H894.469V121.961H900.621ZM932.613 140.664C932.613 134.828 933.996 130.141 936.762 126.602C939.527 123.039 943.148 121.258 947.625 121.258C952.078 121.258 955.605 122.781 958.207 125.828V106H964.711V160H958.734L958.418 155.922C955.816 159.109 952.195 160.703 947.555 160.703C943.148 160.703 939.551 158.898 936.762 155.289C933.996 151.68 932.613 146.969 932.613 141.156V140.664ZM939.117 141.402C939.117 145.715 940.008 149.09 941.789 151.527C943.57 153.965 946.031 155.184 949.172 155.184C953.297 155.184 956.309 153.332 958.207 149.629V132.156C956.262 128.57 953.273 126.777 949.242 126.777C946.055 126.777 943.57 128.008 941.789 130.469C940.008 132.93 939.117 136.574 939.117 141.402ZM323.602 235.035L330.914 205.961H337.418L326.344 244H321.07L311.824 215.172L302.824 244H297.551L286.512 205.961H292.98L300.469 234.438L309.328 205.961H314.566L323.602 235.035ZM350.566 210.566C353.449 207.027 357.199 205.258 361.816 205.258C369.855 205.258 373.91 209.793 373.98 218.863V244H367.477V218.828C367.453 216.086 366.82 214.059 365.578 212.746C364.359 211.434 362.449 210.777 359.848 210.777C357.738 210.777 355.887 211.34 354.293 212.465C352.699 213.59 351.457 215.066 350.566 216.895V244H344.062V190H350.566V210.566ZM407.203 244C406.828 243.25 406.523 241.914 406.289 239.992C403.266 243.133 399.656 244.703 395.461 244.703C391.711 244.703 388.629 243.648 386.215 241.539C383.824 239.406 382.629 236.711 382.629 233.453C382.629 229.492 384.129 226.422 387.129 224.242C390.152 222.039 394.395 220.938 399.855 220.938H406.184V217.949C406.184 215.676 405.504 213.871 404.145 212.535C402.785 211.176 400.781 210.496 398.133 210.496C395.812 210.496 393.867 211.082 392.297 212.254C390.727 213.426 389.941 214.844 389.941 216.508H383.402C383.402 214.609 384.07 212.781 385.406 211.023C386.766 209.242 388.594 207.836 390.891 206.805C393.211 205.773 395.754 205.258 398.52 205.258C402.902 205.258 406.336 206.359 408.82 208.562C411.305 210.742 412.594 213.754 412.688 217.598V235.105C412.688 238.598 413.133 241.375 414.023 243.438V244H407.203ZM396.41 239.043C398.449 239.043 400.383 238.516 402.211 237.461C404.039 236.406 405.363 235.035 406.184 233.348V225.543H401.086C393.117 225.543 389.133 227.875 389.133 232.539C389.133 234.578 389.812 236.172 391.172 237.32C392.531 238.469 394.277 239.043 396.41 239.043ZM431.707 196.75V205.961H438.809V210.988H431.707V234.578C431.707 236.102 432.023 237.25 432.656 238.023C433.289 238.773 434.367 239.148 435.891 239.148C436.641 239.148 437.672 239.008 438.984 238.727V244C437.273 244.469 435.609 244.703 433.992 244.703C431.086 244.703 428.895 243.824 427.418 242.066C425.941 240.309 425.203 237.812 425.203 234.578V210.988H418.277V205.961H425.203V196.75H431.707ZM476.742 234.473L485.602 205.961H492.562L477.27 249.871C474.902 256.199 471.141 259.363 465.984 259.363L464.754 259.258L462.328 258.801V253.527L464.086 253.668C466.289 253.668 468 253.223 469.219 252.332C470.461 251.441 471.48 249.812 472.277 247.445L473.719 243.578L460.148 205.961H467.25L476.742 234.473ZM496.113 224.629C496.113 220.902 496.84 217.551 498.293 214.574C499.77 211.598 501.809 209.301 504.41 207.684C507.035 206.066 510.023 205.258 513.375 205.258C518.555 205.258 522.738 207.051 525.926 210.637C529.137 214.223 530.742 218.992 530.742 224.945V225.402C530.742 229.105 530.027 232.434 528.598 235.387C527.191 238.316 525.164 240.602 522.516 242.242C519.891 243.883 516.867 244.703 513.445 244.703C508.289 244.703 504.105 242.91 500.895 239.324C497.707 235.738 496.113 230.992 496.113 225.086V224.629ZM502.652 225.402C502.652 229.621 503.625 233.008 505.57 235.562C507.539 238.117 510.164 239.395 513.445 239.395C516.75 239.395 519.375 238.105 521.32 235.527C523.266 232.926 524.238 229.293 524.238 224.629C524.238 220.457 523.242 217.082 521.25 214.504C519.281 211.902 516.656 210.602 513.375 210.602C510.164 210.602 507.574 211.879 505.605 214.434C503.637 216.988 502.652 220.645 502.652 225.402ZM562.383 240.238C559.852 243.215 556.137 244.703 551.238 244.703C547.184 244.703 544.09 243.531 541.957 241.188C539.848 238.82 538.781 235.328 538.758 230.711V205.961H545.262V230.535C545.262 236.301 547.605 239.184 552.293 239.184C557.262 239.184 560.566 237.332 562.207 233.629V205.961H568.711V244H562.523L562.383 240.238ZM579.082 207.227L575.391 204.695C577.57 201.648 578.695 198.438 578.766 195.062V190H585.199V194.57C585.176 196.914 584.59 199.258 583.441 201.602C582.316 203.922 580.863 205.797 579.082 207.227ZM611.426 211.797C610.441 211.633 609.375 211.551 608.227 211.551C603.961 211.551 601.066 213.367 599.543 217V244H593.039V205.961H599.367L599.473 210.355C601.605 206.957 604.629 205.258 608.543 205.258C609.809 205.258 610.77 205.422 611.426 205.75V211.797ZM632.52 244.703C627.363 244.703 623.168 243.016 619.934 239.641C616.699 236.242 615.082 231.707 615.082 226.035V224.84C615.082 221.066 615.797 217.703 617.227 214.75C618.68 211.773 620.695 209.453 623.273 207.789C625.875 206.102 628.688 205.258 631.711 205.258C636.656 205.258 640.5 206.887 643.242 210.145C645.984 213.402 647.355 218.066 647.355 224.137V226.844H621.586C621.68 230.594 622.77 233.629 624.855 235.949C626.965 238.246 629.637 239.395 632.871 239.395C635.168 239.395 637.113 238.926 638.707 237.988C640.301 237.051 641.695 235.809 642.891 234.262L646.863 237.355C643.676 242.254 638.895 244.703 632.52 244.703ZM631.711 210.602C629.086 210.602 626.883 211.562 625.102 213.484C623.32 215.383 622.219 218.055 621.797 221.5H640.852V221.008C640.664 217.703 639.773 215.148 638.18 213.344C636.586 211.516 634.43 210.602 631.711 210.602ZM679.84 244H673.336V190H679.84V244ZM688.559 224.629C688.559 220.902 689.285 217.551 690.738 214.574C692.215 211.598 694.254 209.301 696.855 207.684C699.48 206.066 702.469 205.258 705.82 205.258C711 205.258 715.184 207.051 718.371 210.637C721.582 214.223 723.188 218.992 723.188 224.945V225.402C723.188 229.105 722.473 232.434 721.043 235.387C719.637 238.316 717.609 240.602 714.961 242.242C712.336 243.883 709.312 244.703 705.891 244.703C700.734 244.703 696.551 242.91 693.34 239.324C690.152 235.738 688.559 230.992 688.559 225.086V224.629ZM695.098 225.402C695.098 229.621 696.07 233.008 698.016 235.562C699.984 238.117 702.609 239.395 705.891 239.395C709.195 239.395 711.82 238.105 713.766 235.527C715.711 232.926 716.684 229.293 716.684 224.629C716.684 220.457 715.688 217.082 713.695 214.504C711.727 211.902 709.102 210.602 705.82 210.602C702.609 210.602 700.02 211.879 698.051 214.434C696.082 216.988 695.098 220.645 695.098 225.402ZM729.621 224.629C729.621 220.902 730.348 217.551 731.801 214.574C733.277 211.598 735.316 209.301 737.918 207.684C740.543 206.066 743.531 205.258 746.883 205.258C752.062 205.258 756.246 207.051 759.434 210.637C762.645 214.223 764.25 218.992 764.25 224.945V225.402C764.25 229.105 763.535 232.434 762.105 235.387C760.699 238.316 758.672 240.602 756.023 242.242C753.398 243.883 750.375 244.703 746.953 244.703C741.797 244.703 737.613 242.91 734.402 239.324C731.215 235.738 729.621 230.992 729.621 225.086V224.629ZM736.16 225.402C736.16 229.621 737.133 233.008 739.078 235.562C741.047 238.117 743.672 239.395 746.953 239.395C750.258 239.395 752.883 238.105 754.828 235.527C756.773 232.926 757.746 229.293 757.746 224.629C757.746 220.457 756.75 217.082 754.758 214.504C752.789 211.902 750.164 210.602 746.883 210.602C743.672 210.602 741.082 211.879 739.113 214.434C737.145 216.988 736.16 220.645 736.16 225.402ZM783.023 226.387L778.945 230.641V244H772.441V190H778.945V222.66L782.426 218.477L794.273 205.961H802.184L787.383 221.852L803.906 244H796.277L783.023 226.387ZM815.965 244H809.461V205.961H815.965V244ZM808.934 195.871C808.934 194.816 809.25 193.926 809.883 193.199C810.539 192.473 811.5 192.109 812.766 192.109C814.031 192.109 814.992 192.473 815.648 193.199C816.305 193.926 816.633 194.816 816.633 195.871C816.633 196.926 816.305 197.805 815.648 198.508C814.992 199.211 814.031 199.562 812.766 199.562C811.5 199.562 810.539 199.211 809.883 198.508C809.25 197.805 808.934 196.926 808.934 195.871ZM832.559 205.961L832.77 210.742C835.676 207.086 839.473 205.258 844.16 205.258C852.199 205.258 856.254 209.793 856.324 218.863V244H849.82V218.828C849.797 216.086 849.164 214.059 847.922 212.746C846.703 211.434 844.793 210.777 842.191 210.777C840.082 210.777 838.23 211.34 836.637 212.465C835.043 213.59 833.801 215.066 832.91 216.895V244H826.406V205.961H832.559ZM864.586 224.664C864.586 218.734 865.957 214.023 868.699 210.531C871.441 207.016 875.074 205.258 879.598 205.258C884.238 205.258 887.859 206.898 890.461 210.18L890.777 205.961H896.719V243.086C896.719 248.008 895.254 251.887 892.324 254.723C889.418 257.559 885.504 258.977 880.582 258.977C877.84 258.977 875.156 258.391 872.531 257.219C869.906 256.047 867.902 254.441 866.52 252.402L869.895 248.5C872.684 251.945 876.094 253.668 880.125 253.668C883.289 253.668 885.75 252.777 887.508 250.996C889.289 249.215 890.18 246.707 890.18 243.473V240.203C887.578 243.203 884.027 244.703 879.527 244.703C875.074 244.703 871.465 242.91 868.699 239.324C865.957 235.738 864.586 230.852 864.586 224.664ZM871.125 225.402C871.125 229.691 872.004 233.066 873.762 235.527C875.52 237.965 877.98 239.184 881.145 239.184C885.246 239.184 888.258 237.32 890.18 233.594V216.227C888.188 212.594 885.199 210.777 881.215 210.777C878.051 210.777 875.578 212.008 873.797 214.469C872.016 216.93 871.125 220.574 871.125 225.402ZM927.621 244V210.988H921.609V205.961H927.621V202.059C927.621 197.98 928.711 194.828 930.891 192.602C933.07 190.375 936.152 189.262 940.137 189.262C941.637 189.262 943.125 189.461 944.602 189.859L944.25 195.133C943.148 194.922 941.977 194.816 940.734 194.816C938.625 194.816 936.996 195.438 935.848 196.68C934.699 197.898 934.125 199.656 934.125 201.953V205.961H942.246V210.988H934.125V244H927.621ZM947.73 224.629C947.73 220.902 948.457 217.551 949.91 214.574C951.387 211.598 953.426 209.301 956.027 207.684C958.652 206.066 961.641 205.258 964.992 205.258C970.172 205.258 974.355 207.051 977.543 210.637C980.754 214.223 982.359 218.992 982.359 224.945V225.402C982.359 229.105 981.645 232.434 980.215 235.387C978.809 238.316 976.781 240.602 974.133 242.242C971.508 243.883 968.484 244.703 965.062 244.703C959.906 244.703 955.723 242.91 952.512 239.324C949.324 235.738 947.73 230.992 947.73 225.086V224.629ZM954.27 225.402C954.27 229.621 955.242 233.008 957.188 235.562C959.156 238.117 961.781 239.395 965.062 239.395C968.367 239.395 970.992 238.105 972.938 235.527C974.883 232.926 975.855 229.293 975.855 224.629C975.855 220.457 974.859 217.082 972.867 214.504C970.898 211.902 968.273 210.602 964.992 210.602C961.781 210.602 959.191 211.879 957.223 214.434C955.254 216.988 954.27 220.645 954.27 225.402ZM1008.9 211.797C1007.92 211.633 1006.85 211.551 1005.7 211.551C1001.44 211.551 998.543 213.367 997.02 217V244H990.516V205.961H996.844L996.949 210.355C999.082 206.957 1002.11 205.258 1006.02 205.258C1007.29 205.258 1008.25 205.422 1008.9 205.75V211.797ZM1010.7 240.59C1010.7 239.465 1011.02 238.527 1011.68 237.777C1012.36 237.027 1013.37 236.652 1014.7 236.652C1016.04 236.652 1017.05 237.027 1017.73 237.777C1018.43 238.527 1018.78 239.465 1018.78 240.59C1018.78 241.668 1018.43 242.57 1017.73 243.297C1017.05 244.023 1016.04 244.387 1014.7 244.387C1013.37 244.387 1012.36 244.023 1011.68 243.297C1011.02 242.57 1010.7 241.668 1010.7 240.59Z" fill="#8F8F8F"/>
</svg>
