<svg width="1083" height="298" viewBox="0 0 1083 298" fill="none" xmlns="http://www.w3.org/2000/svg">
<path d="M14.4844 82.6719L19.6875 31.625H72.1406V43.6484H30.7266L27.6328 71.5625C32.6484 68.6094 38.3438 67.1328 44.7188 67.1328C54.0469 67.1328 61.4531 70.2266 66.9375 76.4141C72.4219 82.5547 75.1641 90.875 75.1641 101.375C75.1641 111.922 72.3047 120.242 66.5859 126.336C60.9141 132.383 52.9688 135.406 42.75 135.406C33.7031 135.406 26.3203 132.898 20.6016 127.883C14.8828 122.867 11.625 115.93 10.8281 107.07H23.1328C23.9297 112.93 26.0156 117.359 29.3906 120.359C32.7656 123.312 37.2188 124.789 42.75 124.789C48.7969 124.789 53.5312 122.727 56.9531 118.602C60.4219 114.477 62.1562 108.781 62.1562 101.516C62.1562 94.6719 60.2812 89.1875 56.5312 85.0625C52.8281 80.8906 47.8828 78.8047 41.6953 78.8047C36.0234 78.8047 31.5703 80.0469 28.3359 82.5312L24.8906 85.3438L14.4844 82.6719ZM153.562 90.3359C153.562 105.57 150.961 116.891 145.758 124.297C140.555 131.703 132.422 135.406 121.359 135.406C110.438 135.406 102.352 131.797 97.1016 124.578C91.8516 117.312 89.1328 106.484 88.9453 92.0938V74.7266C88.9453 59.6797 91.5469 48.5 96.75 41.1875C101.953 33.875 110.109 30.2188 121.219 30.2188C132.234 30.2188 140.344 33.7578 145.547 40.8359C150.75 47.8672 153.422 58.7422 153.562 73.4609V90.3359ZM140.555 72.5469C140.555 61.5312 139.008 53.5156 135.914 48.5C132.82 43.4375 127.922 40.9062 121.219 40.9062C114.562 40.9062 109.711 43.4141 106.664 48.4297C103.617 53.4453 102.047 61.1562 101.953 71.5625V92.375C101.953 103.438 103.547 111.617 106.734 116.914C109.969 122.164 114.844 124.789 121.359 124.789C127.781 124.789 132.539 122.305 135.633 117.336C138.773 112.367 140.414 104.539 140.555 93.8516V72.5469ZM234.422 90.3359C234.422 105.57 231.82 116.891 226.617 124.297C221.414 131.703 213.281 135.406 202.219 135.406C191.297 135.406 183.211 131.797 177.961 124.578C172.711 117.312 169.992 106.484 169.805 92.0938V74.7266C169.805 59.6797 172.406 48.5 177.609 41.1875C182.812 33.875 190.969 30.2188 202.078 30.2188C213.094 30.2188 221.203 33.7578 226.406 40.8359C231.609 47.8672 234.281 58.7422 234.422 73.4609V90.3359ZM221.414 72.5469C221.414 61.5312 219.867 53.5156 216.773 48.5C213.68 43.4375 208.781 40.9062 202.078 40.9062C195.422 40.9062 190.57 43.4141 187.523 48.4297C184.477 53.4453 182.906 61.1562 182.812 71.5625V92.375C182.812 103.438 184.406 111.617 187.594 116.914C190.828 122.164 195.703 124.789 202.219 124.789C208.641 124.789 213.398 122.305 216.492 117.336C219.633 112.367 221.273 104.539 221.414 93.8516V72.5469Z" fill="black"/>
<path d="M330.316 52.0586C330.316 57.0742 329.473 61.457 327.785 65.207C326.098 68.9336 323.707 71.7812 320.613 73.75C317.52 75.7188 313.91 76.7031 309.785 76.7031C305.754 76.7031 302.18 75.7188 299.062 73.75C295.945 71.7578 293.52 68.9336 291.785 65.2773C290.074 61.5977 289.195 57.3438 289.148 52.5156V48.8242C289.148 43.9023 290.004 39.5547 291.715 35.7812C293.426 32.0078 295.84 29.125 298.957 27.1328C302.098 25.1172 305.684 24.1094 309.715 24.1094C313.816 24.1094 317.426 25.1055 320.543 27.0977C323.684 29.0664 326.098 31.9375 327.785 35.7109C329.473 39.4609 330.316 43.832 330.316 48.8242V52.0586ZM323.602 48.7539C323.602 42.6836 322.383 38.0312 319.945 34.7969C317.508 31.5391 314.098 29.9102 309.715 29.9102C305.449 29.9102 302.086 31.5391 299.625 34.7969C297.188 38.0312 295.934 42.5312 295.863 48.2969V52.0586C295.863 57.9414 297.094 62.5703 299.555 65.9453C302.039 69.2969 305.449 70.9727 309.785 70.9727C314.145 70.9727 317.52 69.3906 319.91 66.2266C322.301 63.0391 323.531 58.4805 323.602 52.5508V48.7539ZM337.699 56.6289C337.699 52.9023 338.426 49.5508 339.879 46.5742C341.355 43.5977 343.395 41.3008 345.996 39.6836C348.621 38.0664 351.609 37.2578 354.961 37.2578C360.141 37.2578 364.324 39.0508 367.512 42.6367C370.723 46.2227 372.328 50.9922 372.328 56.9453V57.4023C372.328 61.1055 371.613 64.4336 370.184 67.3867C368.777 70.3164 366.75 72.6016 364.102 74.2422C361.477 75.8828 358.453 76.7031 355.031 76.7031C349.875 76.7031 345.691 74.9102 342.48 71.3242C339.293 67.7383 337.699 62.9922 337.699 57.0859V56.6289ZM344.238 57.4023C344.238 61.6211 345.211 65.0078 347.156 67.5625C349.125 70.1172 351.75 71.3945 355.031 71.3945C358.336 71.3945 360.961 70.1055 362.906 67.5273C364.852 64.9258 365.824 61.293 365.824 56.6289C365.824 52.457 364.828 49.082 362.836 46.5039C360.867 43.9023 358.242 42.6016 354.961 42.6016C351.75 42.6016 349.16 43.8789 347.191 46.4336C345.223 48.9883 344.238 52.6445 344.238 57.4023ZM412.617 57.4023C412.617 63.1914 411.293 67.8555 408.645 71.3945C405.996 74.9336 402.41 76.7031 397.887 76.7031C393.27 76.7031 389.637 75.2383 386.988 72.3086V90.625H380.484V37.9609H386.426L386.742 42.1797C389.391 38.8984 393.07 37.2578 397.781 37.2578C402.352 37.2578 405.961 38.9805 408.609 42.4258C411.281 45.8711 412.617 50.6641 412.617 56.8047V57.4023ZM406.113 56.6641C406.113 52.375 405.199 48.9883 403.371 46.5039C401.543 44.0195 399.035 42.7773 395.848 42.7773C391.91 42.7773 388.957 44.5234 386.988 48.0156V66.1914C388.934 69.6602 391.91 71.3945 395.918 71.3945C399.035 71.3945 401.508 70.1641 403.336 67.7031C405.188 65.2188 406.113 61.5391 406.113 56.6641ZM443.062 65.9102C443.062 64.1523 442.395 62.793 441.059 61.832C439.746 60.8477 437.438 60.0039 434.133 59.3008C430.852 58.5977 428.238 57.7539 426.293 56.7695C424.371 55.7852 422.941 54.6133 422.004 53.2539C421.09 51.8945 420.633 50.2773 420.633 48.4023C420.633 45.2852 421.945 42.6484 424.57 40.4922C427.219 38.3359 430.594 37.2578 434.695 37.2578C439.008 37.2578 442.5 38.3711 445.172 40.5977C447.867 42.8242 449.215 45.6719 449.215 49.1406H442.676C442.676 47.3594 441.914 45.8242 440.391 44.5352C438.891 43.2461 436.992 42.6016 434.695 42.6016C432.328 42.6016 430.477 43.1172 429.141 44.1484C427.805 45.1797 427.137 46.5273 427.137 48.1914C427.137 49.7617 427.758 50.9453 429 51.7422C430.242 52.5391 432.48 53.3008 435.715 54.0273C438.973 54.7539 441.609 55.6211 443.625 56.6289C445.641 57.6367 447.129 58.8555 448.09 60.2852C449.074 61.6914 449.566 63.4141 449.566 65.4531C449.566 68.8516 448.207 71.582 445.488 73.6445C442.77 75.6836 439.242 76.7031 434.906 76.7031C431.859 76.7031 429.164 76.1641 426.82 75.0859C424.477 74.0078 422.637 72.5078 421.301 70.5859C419.988 68.6406 419.332 66.543 419.332 64.293H425.836C425.953 66.4727 426.82 68.207 428.438 69.4961C430.078 70.7617 432.234 71.3945 434.906 71.3945C437.367 71.3945 439.336 70.9023 440.812 69.918C442.312 68.9102 443.062 67.5742 443.062 65.9102ZM465.316 61.5508H459.445L458.988 24.8125H465.809L465.316 61.5508ZM458.742 72.7305C458.742 71.6758 459.059 70.7969 459.691 70.0938C460.348 69.3672 461.309 69.0039 462.574 69.0039C463.84 69.0039 464.801 69.3672 465.457 70.0938C466.113 70.7969 466.441 71.6758 466.441 72.7305C466.441 73.7852 466.113 74.6641 465.457 75.3672C464.801 76.0469 463.84 76.3867 462.574 76.3867C461.309 76.3867 460.348 76.0469 459.691 75.3672C459.059 74.6641 458.742 73.7852 458.742 72.7305ZM306.023 137.184C300.234 135.52 296.016 133.48 293.367 131.066C290.742 128.629 289.43 125.629 289.43 122.066C289.43 118.035 291.035 114.707 294.246 112.082C297.48 109.434 301.676 108.109 306.832 108.109C310.348 108.109 313.477 108.789 316.219 110.148C318.984 111.508 321.117 113.383 322.617 115.773C324.141 118.164 324.902 120.777 324.902 123.613H318.117C318.117 120.52 317.133 118.094 315.164 116.336C313.195 114.555 310.418 113.664 306.832 113.664C303.504 113.664 300.902 114.402 299.027 115.879C297.176 117.332 296.25 119.359 296.25 121.961C296.25 124.047 297.129 125.816 298.887 127.27C300.668 128.699 303.68 130.012 307.922 131.207C312.188 132.402 315.516 133.727 317.906 135.18C320.32 136.609 322.102 138.285 323.25 140.207C324.422 142.129 325.008 144.391 325.008 146.992C325.008 151.141 323.391 154.469 320.156 156.977C316.922 159.461 312.598 160.703 307.184 160.703C303.668 160.703 300.387 160.035 297.34 158.699C294.293 157.34 291.938 155.488 290.273 153.145C288.633 150.801 287.812 148.141 287.812 145.164H294.598C294.598 148.258 295.734 150.707 298.008 152.512C300.305 154.293 303.363 155.184 307.184 155.184C310.746 155.184 313.477 154.457 315.375 153.004C317.273 151.551 318.223 149.57 318.223 147.062C318.223 144.555 317.344 142.621 315.586 141.262C313.828 139.879 310.641 138.52 306.023 137.184ZM330.949 140.629C330.949 136.902 331.676 133.551 333.129 130.574C334.605 127.598 336.645 125.301 339.246 123.684C341.871 122.066 344.859 121.258 348.211 121.258C353.391 121.258 357.574 123.051 360.762 126.637C363.973 130.223 365.578 134.992 365.578 140.945V141.402C365.578 145.105 364.863 148.434 363.434 151.387C362.027 154.316 360 156.602 357.352 158.242C354.727 159.883 351.703 160.703 348.281 160.703C343.125 160.703 338.941 158.91 335.73 155.324C332.543 151.738 330.949 146.992 330.949 141.086V140.629ZM337.488 141.402C337.488 145.621 338.461 149.008 340.406 151.562C342.375 154.117 345 155.395 348.281 155.395C351.586 155.395 354.211 154.105 356.156 151.527C358.102 148.926 359.074 145.293 359.074 140.629C359.074 136.457 358.078 133.082 356.086 130.504C354.117 127.902 351.492 126.602 348.211 126.602C345 126.602 342.41 127.879 340.441 130.434C338.473 132.988 337.488 136.645 337.488 141.402ZM379.852 121.961L380.027 126.18C382.816 122.898 386.578 121.258 391.312 121.258C396.633 121.258 400.254 123.297 402.176 127.375C403.441 125.547 405.082 124.07 407.098 122.945C409.137 121.82 411.539 121.258 414.305 121.258C422.648 121.258 426.891 125.676 427.031 134.512V160H420.527V134.898C420.527 132.18 419.906 130.152 418.664 128.816C417.422 127.457 415.336 126.777 412.406 126.777C409.992 126.777 407.988 127.504 406.395 128.957C404.801 130.387 403.875 132.32 403.617 134.758V160H397.078V135.074C397.078 129.543 394.371 126.777 388.957 126.777C384.691 126.777 381.773 128.594 380.203 132.227V160H373.699V121.961H379.852ZM452.66 160.703C447.504 160.703 443.309 159.016 440.074 155.641C436.84 152.242 435.223 147.707 435.223 142.035V140.84C435.223 137.066 435.938 133.703 437.367 130.75C438.82 127.773 440.836 125.453 443.414 123.789C446.016 122.102 448.828 121.258 451.852 121.258C456.797 121.258 460.641 122.887 463.383 126.145C466.125 129.402 467.496 134.066 467.496 140.137V142.844H441.727C441.82 146.594 442.91 149.629 444.996 151.949C447.105 154.246 449.777 155.395 453.012 155.395C455.309 155.395 457.254 154.926 458.848 153.988C460.441 153.051 461.836 151.809 463.031 150.262L467.004 153.355C463.816 158.254 459.035 160.703 452.66 160.703ZM451.852 126.602C449.227 126.602 447.023 127.562 445.242 129.484C443.461 131.383 442.359 134.055 441.938 137.5H460.992V137.008C460.805 133.703 459.914 131.148 458.32 129.344C456.727 127.516 454.57 126.602 451.852 126.602ZM483.879 112.75V121.961H490.98V126.988H483.879V150.578C483.879 152.102 484.195 153.25 484.828 154.023C485.461 154.773 486.539 155.148 488.062 155.148C488.812 155.148 489.844 155.008 491.156 154.727V160C489.445 160.469 487.781 160.703 486.164 160.703C483.258 160.703 481.066 159.824 479.59 158.066C478.113 156.309 477.375 153.812 477.375 150.578V126.988H470.449V121.961H477.375V112.75H483.879ZM505.113 126.566C507.996 123.027 511.746 121.258 516.363 121.258C524.402 121.258 528.457 125.793 528.527 134.863V160H522.023V134.828C522 132.086 521.367 130.059 520.125 128.746C518.906 127.434 516.996 126.777 514.395 126.777C512.285 126.777 510.434 127.34 508.84 128.465C507.246 129.59 506.004 131.066 505.113 132.895V160H498.609V106H505.113V126.566ZM545.332 160H538.828V121.961H545.332V160ZM538.301 111.871C538.301 110.816 538.617 109.926 539.25 109.199C539.906 108.473 540.867 108.109 542.133 108.109C543.398 108.109 544.359 108.473 545.016 109.199C545.672 109.926 546 110.816 546 111.871C546 112.926 545.672 113.805 545.016 114.508C544.359 115.211 543.398 115.562 542.133 115.562C540.867 115.562 539.906 115.211 539.25 114.508C538.617 113.805 538.301 112.926 538.301 111.871ZM561.926 121.961L562.137 126.742C565.043 123.086 568.84 121.258 573.527 121.258C581.566 121.258 585.621 125.793 585.691 134.863V160H579.188V134.828C579.164 132.086 578.531 130.059 577.289 128.746C576.07 127.434 574.16 126.777 571.559 126.777C569.449 126.777 567.598 127.34 566.004 128.465C564.41 129.59 563.168 131.066 562.277 132.895V160H555.773V121.961H561.926ZM593.953 140.664C593.953 134.734 595.324 130.023 598.066 126.531C600.809 123.016 604.441 121.258 608.965 121.258C613.605 121.258 617.227 122.898 619.828 126.18L620.145 121.961H626.086V159.086C626.086 164.008 624.621 167.887 621.691 170.723C618.785 173.559 614.871 174.977 609.949 174.977C607.207 174.977 604.523 174.391 601.898 173.219C599.273 172.047 597.27 170.441 595.887 168.402L599.262 164.5C602.051 167.945 605.461 169.668 609.492 169.668C612.656 169.668 615.117 168.777 616.875 166.996C618.656 165.215 619.547 162.707 619.547 159.473V156.203C616.945 159.203 613.395 160.703 608.895 160.703C604.441 160.703 600.832 158.91 598.066 155.324C595.324 151.738 593.953 146.852 593.953 140.664ZM600.492 141.402C600.492 145.691 601.371 149.066 603.129 151.527C604.887 153.965 607.348 155.184 610.512 155.184C614.613 155.184 617.625 153.32 619.547 149.594V132.227C617.555 128.594 614.566 126.777 610.582 126.777C607.418 126.777 604.945 128.008 603.164 130.469C601.383 132.93 600.492 136.574 600.492 141.402ZM687.469 151.035L694.781 121.961H701.285L690.211 160H684.938L675.691 131.172L666.691 160H661.418L650.379 121.961H656.848L664.336 150.438L673.195 121.961H678.434L687.469 151.035ZM723.715 160.703C718.559 160.703 714.363 159.016 711.129 155.641C707.895 152.242 706.277 147.707 706.277 142.035V140.84C706.277 137.066 706.992 133.703 708.422 130.75C709.875 127.773 711.891 125.453 714.469 123.789C717.07 122.102 719.883 121.258 722.906 121.258C727.852 121.258 731.695 122.887 734.438 126.145C737.18 129.402 738.551 134.066 738.551 140.137V142.844H712.781C712.875 146.594 713.965 149.629 716.051 151.949C718.16 154.246 720.832 155.395 724.066 155.395C726.363 155.395 728.309 154.926 729.902 153.988C731.496 153.051 732.891 151.809 734.086 150.262L738.059 153.355C734.871 158.254 730.09 160.703 723.715 160.703ZM722.906 126.602C720.281 126.602 718.078 127.562 716.297 129.484C714.516 131.383 713.414 134.055 712.992 137.5H732.047V137.008C731.859 133.703 730.969 131.148 729.375 129.344C727.781 127.516 725.625 126.602 722.906 126.602ZM752.262 121.961L752.473 126.742C755.379 123.086 759.176 121.258 763.863 121.258C771.902 121.258 775.957 125.793 776.027 134.863V160H769.523V134.828C769.5 132.086 768.867 130.059 767.625 128.746C766.406 127.434 764.496 126.777 761.895 126.777C759.785 126.777 757.934 127.34 756.34 128.465C754.746 129.59 753.504 131.066 752.613 132.895V160H746.109V121.961H752.262ZM794.66 112.75V121.961H801.762V126.988H794.66V150.578C794.66 152.102 794.977 153.25 795.609 154.023C796.242 154.773 797.32 155.148 798.844 155.148C799.594 155.148 800.625 155.008 801.938 154.727V160C800.227 160.469 798.562 160.703 796.945 160.703C794.039 160.703 791.848 159.824 790.371 158.066C788.895 156.309 788.156 153.812 788.156 150.578V126.988H781.23V121.961H788.156V112.75H794.66ZM860.93 151.035L868.242 121.961H874.746L863.672 160H858.398L849.152 131.172L840.152 160H834.879L823.84 121.961H830.309L837.797 150.438L846.656 121.961H851.895L860.93 151.035ZM899.777 127.797C898.793 127.633 897.727 127.551 896.578 127.551C892.312 127.551 889.418 129.367 887.895 133V160H881.391V121.961H887.719L887.824 126.355C889.957 122.957 892.98 121.258 896.895 121.258C898.16 121.258 899.121 121.422 899.777 121.75V127.797ZM903.363 140.629C903.363 136.902 904.09 133.551 905.543 130.574C907.02 127.598 909.059 125.301 911.66 123.684C914.285 122.066 917.273 121.258 920.625 121.258C925.805 121.258 929.988 123.051 933.176 126.637C936.387 130.223 937.992 134.992 937.992 140.945V141.402C937.992 145.105 937.277 148.434 935.848 151.387C934.441 154.316 932.414 156.602 929.766 158.242C927.141 159.883 924.117 160.703 920.695 160.703C915.539 160.703 911.355 158.91 908.145 155.324C904.957 151.738 903.363 146.992 903.363 141.086V140.629ZM909.902 141.402C909.902 145.621 910.875 149.008 912.82 151.562C914.789 154.117 917.414 155.395 920.695 155.395C924 155.395 926.625 154.105 928.57 151.527C930.516 148.926 931.488 145.293 931.488 140.629C931.488 136.457 930.492 133.082 928.5 130.504C926.531 127.902 923.906 126.602 920.625 126.602C917.414 126.602 914.824 127.879 912.855 130.434C910.887 132.988 909.902 136.645 909.902 141.402ZM952.301 121.961L952.512 126.742C955.418 123.086 959.215 121.258 963.902 121.258C971.941 121.258 975.996 125.793 976.066 134.863V160H969.562V134.828C969.539 132.086 968.906 130.059 967.664 128.746C966.445 127.434 964.535 126.777 961.934 126.777C959.824 126.777 957.973 127.34 956.379 128.465C954.785 129.59 953.543 131.066 952.652 132.895V160H946.148V121.961H952.301ZM984.328 140.664C984.328 134.734 985.699 130.023 988.441 126.531C991.184 123.016 994.816 121.258 999.34 121.258C1003.98 121.258 1007.6 122.898 1010.2 126.18L1010.52 121.961H1016.46V159.086C1016.46 164.008 1015 167.887 1012.07 170.723C1009.16 173.559 1005.25 174.977 1000.32 174.977C997.582 174.977 994.898 174.391 992.273 173.219C989.648 172.047 987.645 170.441 986.262 168.402L989.637 164.5C992.426 167.945 995.836 169.668 999.867 169.668C1003.03 169.668 1005.49 168.777 1007.25 166.996C1009.03 165.215 1009.92 162.707 1009.92 159.473V156.203C1007.32 159.203 1003.77 160.703 999.27 160.703C994.816 160.703 991.207 158.91 988.441 155.324C985.699 151.738 984.328 146.852 984.328 140.664ZM990.867 141.402C990.867 145.691 991.746 149.066 993.504 151.527C995.262 153.965 997.723 155.184 1000.89 155.184C1004.99 155.184 1008 153.32 1009.92 149.594V132.227C1007.93 128.594 1004.94 126.777 1000.96 126.777C997.793 126.777 995.32 128.008 993.539 130.469C991.758 132.93 990.867 136.574 990.867 141.402ZM1026.45 156.59C1026.45 155.465 1026.77 154.527 1027.43 153.777C1028.11 153.027 1029.12 152.652 1030.45 152.652C1031.79 152.652 1032.8 153.027 1033.48 153.777C1034.18 154.527 1034.53 155.465 1034.53 156.59C1034.53 157.668 1034.18 158.57 1033.48 159.297C1032.8 160.023 1031.79 160.387 1030.45 160.387C1029.12 160.387 1028.11 160.023 1027.43 159.297C1026.77 158.57 1026.45 157.668 1026.45 156.59Z" fill="#8F8F8F"/>
</svg>
